<svg width="216" height="213" viewBox="0 0 216 213" fill="none" xmlns="http://www.w3.org/2000/svg">
<path d="M53.9299 34.6004C53.9299 34.6004 86.3822 59.2265 135.718 13.1794C179.534 -27.7139 215.309 36.8069 215.56 67.7052C215.884 107.731 171.744 139.757 193.165 166.046C214.586 192.335 150.685 235.748 116.245 198.177C73.4033 151.441 61.7971 189.414 37.3774 189.414C19.8512 189.414 -16.1317 145.866 8.16717 113.468C28.6143 86.2055 17.4629 77.1569 12.0619 67.7052C4.27259 54.0738 22.7724 17.0742 53.9299 34.6004Z" fill="#DEE9FF"/>
<path d="M165.845 167.355L41.2073 167.278C39.1424 167.276 37.1628 166.454 35.704 164.992C34.2451 163.531 33.4265 161.55 33.4281 159.485L33.4549 112.021L33.481 72.604L33.4789 71.8495L35.534 70.5666L102.583 28.7305C102.891 28.536 103.248 28.4329 103.612 28.4332C103.976 28.4334 104.333 28.5369 104.64 28.7318L171.663 70.6767L173.688 71.9416L173.692 74.3469L173.64 159.568C173.637 161.633 172.814 163.613 171.353 165.073C169.891 166.533 167.91 167.354 165.845 167.355Z" fill="#418DF9"/>
<path d="M173.692 74.3463L114.884 111.914L115.743 109.122L171.663 70.6762L173.688 71.941L173.692 74.3463Z" fill="#208AF2"/>
<path d="M165.991 167.352C165.897 167.354 165.806 167.326 165.73 167.272L103.99 119.944C103.941 119.905 103.901 119.855 103.874 119.799C103.847 119.742 103.834 119.679 103.835 119.616C103.837 119.553 103.853 119.492 103.883 119.436C103.912 119.381 103.955 119.333 104.006 119.297L120.13 108.346L173.071 72.3658C173.129 72.3244 173.198 72.3 173.27 72.2952C173.341 72.2904 173.413 72.3054 173.476 72.3387C173.54 72.3719 173.593 72.422 173.63 72.4835C173.667 72.545 173.686 72.6155 173.685 72.6872L173.629 159.016L173.633 159.568C173.635 161.608 172.834 163.568 171.405 165.024C169.975 166.48 168.031 167.316 165.991 167.352Z" fill="#A2BDFF"/>
<path d="M100.44 115.65L99.401 116.777L34.1015 72.2758C34.0419 72.2351 33.9722 72.2114 33.9001 72.2074C33.8279 72.2034 33.7561 72.2191 33.6922 72.2529C33.6284 72.2867 33.5749 72.3372 33.5377 72.3992C33.5005 72.4611 33.4808 72.532 33.4809 72.6042L33.4788 71.8496L35.5338 70.5668L100.44 115.65Z" fill="#208AF2"/>
<path d="M103.124 119.94L41.3253 167.192C41.2526 167.252 41.1595 167.282 41.0655 167.275C39.0253 167.237 37.0817 166.4 35.6532 164.943C34.2247 163.486 33.4256 161.526 33.428 159.485L33.4548 112.021L33.4809 72.6043C33.4808 72.5321 33.5005 72.4612 33.5377 72.3993C33.575 72.3374 33.6284 72.2868 33.6922 72.253C33.7561 72.2192 33.8279 72.2035 33.9001 72.2075C33.9722 72.2116 34.0419 72.2352 34.1016 72.2759L99.4005 116.777L103.105 119.303C103.156 119.338 103.198 119.384 103.228 119.439C103.258 119.494 103.274 119.554 103.276 119.616C103.278 119.678 103.265 119.74 103.239 119.796C103.212 119.852 103.173 119.902 103.124 119.94Z" fill="#A2BDFF"/>
<path d="M165.841 167.356L41.2114 167.28C39.3261 167.273 37.5069 166.585 36.0895 165.342C34.6722 164.098 33.7524 162.384 33.5001 160.516C33.4586 160.197 33.4964 159.874 33.6101 159.573C33.7237 159.273 33.9098 159.005 34.1517 158.793L102.281 98.8338C102.636 98.5206 103.094 98.348 103.568 98.3483C104.042 98.3486 104.5 98.5218 104.856 98.8354L172.912 158.878C173.154 159.09 173.339 159.358 173.452 159.658C173.566 159.959 173.603 160.283 173.561 160.601C173.306 162.469 172.384 164.182 170.966 165.424C169.547 166.665 167.727 167.351 165.841 167.356Z" fill="#699CFF"/>
<path d="M179.075 44.3813C179.007 44.3604 178.946 44.3228 178.897 44.2718C178.849 44.2208 178.814 44.1582 178.796 44.0899C178.778 44.0216 178.778 43.9499 178.795 43.8815C178.813 43.8131 178.847 43.7504 178.896 43.6991C179.447 43.1171 179.744 42.7963 179.745 42.7956C179.782 42.7534 179.826 42.7189 179.876 42.6943C179.927 42.6697 179.981 42.6555 180.037 42.6524C180.092 42.6493 180.148 42.6575 180.201 42.6764C180.253 42.6953 180.301 42.7247 180.342 42.7626C180.383 42.8005 180.416 42.8463 180.438 42.8972C180.461 42.9481 180.473 43.0031 180.475 43.0588C180.476 43.1146 180.465 43.17 180.445 43.2217C180.424 43.2735 180.393 43.3205 180.353 43.36C180.353 43.36 180.054 43.6828 179.498 44.2698C179.445 44.3259 179.377 44.3661 179.302 44.3858C179.227 44.4055 179.149 44.4039 179.075 44.3813Z" fill="white"/>
<path d="M121.623 88.5701C121.548 88.5468 121.48 88.5025 121.429 88.4423C121.378 88.3821 121.345 88.3086 121.334 88.2303C121.323 88.1521 121.335 88.0724 121.368 88.0005C121.401 87.9287 121.454 87.8678 121.52 87.8249C122.221 87.3717 122.894 86.9155 123.522 86.4689C123.612 86.4052 123.723 86.3796 123.832 86.3979C123.94 86.4163 124.037 86.477 124.101 86.5667C124.165 86.6564 124.19 86.7678 124.172 86.8764C124.154 86.985 124.093 87.0818 124.003 87.1456C123.365 87.599 122.682 88.0621 121.971 88.5219C121.92 88.5549 121.862 88.5763 121.802 88.5846C121.742 88.5929 121.681 88.5879 121.623 88.5701ZM125.586 85.7388C125.514 85.7165 125.45 85.675 125.399 85.6188C125.349 85.5626 125.315 85.4937 125.301 85.4196C125.287 85.3455 125.293 85.269 125.319 85.1983C125.346 85.1275 125.391 85.0652 125.449 85.0181C126.109 84.4903 126.721 83.9621 127.269 83.448C127.309 83.4107 127.355 83.3816 127.406 83.3624C127.457 83.3431 127.512 83.3341 127.566 83.3359C127.621 83.3376 127.674 83.3501 127.724 83.3726C127.773 83.395 127.818 83.4271 127.856 83.4668C127.893 83.5066 127.922 83.5533 127.941 83.6043C127.96 83.6553 127.969 83.7096 127.968 83.7641C127.966 83.8186 127.953 83.8722 127.931 83.9218C127.908 83.9715 127.876 84.0163 127.837 84.0536C127.273 84.5824 126.644 85.1249 125.968 85.6662C125.915 85.7085 125.853 85.7372 125.786 85.7499C125.72 85.7625 125.651 85.7587 125.587 85.7388L125.586 85.7388ZM126.668 81.9323L126.662 81.9303C125.859 81.6872 125.119 81.2699 124.496 80.708C124.456 80.6714 124.423 80.6273 124.4 80.578C124.376 80.5288 124.363 80.4754 124.36 80.421C124.357 80.3665 124.365 80.3121 124.384 80.2607C124.402 80.2094 124.43 80.1621 124.467 80.1217C124.503 80.0813 124.548 80.0484 124.597 80.0251C124.646 80.0017 124.699 79.9883 124.754 79.9855C124.808 79.9828 124.863 79.9908 124.914 80.0091C124.965 80.0274 125.013 80.0557 125.053 80.0923C125.587 80.5724 126.22 80.9289 126.907 81.1362C126.938 81.1459 126.972 81.1563 127.005 81.1664L127.012 81.1687C127.065 81.1842 127.113 81.2099 127.156 81.2443C127.198 81.2787 127.233 81.321 127.259 81.369C127.285 81.4169 127.301 81.4695 127.307 81.5237C127.313 81.5779 127.307 81.6327 127.292 81.685C127.276 81.7372 127.251 81.7859 127.216 81.8282C127.182 81.8705 127.14 81.9057 127.092 81.9316C127.044 81.9575 126.991 81.9738 126.937 81.9794C126.883 81.985 126.828 81.9799 126.776 81.9644C126.74 81.954 126.704 81.9433 126.669 81.9323L126.668 81.9323ZM129.114 82.3895C129.031 82.3361 128.963 82.2615 128.918 82.1733C128.873 82.085 128.852 81.9864 128.858 81.8875C128.864 81.7886 128.896 81.6931 128.951 81.6108C129.006 81.5284 129.082 81.4622 129.171 81.419C129.583 80.9115 129.953 80.371 130.277 79.8029C130.303 79.7548 130.338 79.7123 130.381 79.6779C130.424 79.6436 130.473 79.6181 130.526 79.6029C130.579 79.5877 130.634 79.5832 130.688 79.5895C130.743 79.5957 130.796 79.6128 130.844 79.6396C130.892 79.6664 130.934 79.7024 130.967 79.7456C131.001 79.7888 131.026 79.8383 131.041 79.8912C131.056 79.9441 131.06 79.9993 131.053 80.0538C131.046 80.1082 131.028 80.1608 131.001 80.2084C130.787 80.5869 130.553 80.9532 130.298 81.3055C130.713 81.2468 131.144 81.1638 131.589 81.057C131.695 81.0353 131.804 81.0554 131.895 81.1132C131.986 81.1709 132.051 81.2617 132.076 81.3664C132.101 81.4711 132.085 81.5815 132.03 81.6743C131.976 81.7671 131.887 81.835 131.783 81.8636C131.063 82.0406 130.33 82.1583 129.59 82.2155L129.553 82.2597C129.501 82.3218 129.431 82.3672 129.353 82.3901C129.275 82.4131 129.192 82.4127 129.114 82.3889L129.114 82.3895ZM123.153 78.8875C123.056 78.8581 122.974 78.7945 122.921 78.7087C122.451 77.9841 122.113 77.182 121.923 76.3395C121.91 76.2852 121.908 76.2288 121.917 76.1737C121.927 76.1187 121.947 76.0661 121.977 76.0191C122.007 75.9721 122.047 75.9317 122.093 75.9002C122.139 75.8688 122.191 75.847 122.246 75.8362C122.301 75.8254 122.357 75.8257 122.412 75.8372C122.467 75.8487 122.518 75.8712 122.564 75.9031C122.61 75.9351 122.649 75.976 122.678 76.0234C122.708 76.0707 122.728 76.1236 122.736 76.1788C122.908 76.9238 123.21 77.6327 123.628 78.273C123.672 78.3449 123.693 78.4285 123.689 78.5128C123.684 78.5971 123.654 78.678 123.602 78.7448C123.551 78.8115 123.48 78.8609 123.399 78.8864C123.319 78.9118 123.233 78.9122 123.152 78.8873L123.153 78.8875ZM133.892 81.1394C133.809 81.114 133.736 81.0632 133.683 80.9941C133.63 80.9251 133.601 80.8413 133.598 80.7545C133.596 80.6677 133.621 80.5823 133.669 80.5104C133.718 80.4384 133.788 80.3835 133.869 80.3533C134.573 80.0923 135.319 79.7788 136.086 79.4214C136.136 79.3984 136.189 79.3854 136.244 79.383C136.298 79.3807 136.352 79.3891 136.404 79.4078C136.455 79.4264 136.502 79.455 136.542 79.4919C136.582 79.5287 136.615 79.5731 136.638 79.6225C136.661 79.672 136.674 79.7254 136.676 79.7799C136.678 79.8343 136.67 79.8887 136.651 79.9399C136.633 79.9912 136.604 80.0382 136.567 80.0783C136.53 80.1185 136.486 80.151 136.437 80.174C135.649 80.5407 134.882 80.863 134.158 81.1316C134.072 81.163 133.979 81.1653 133.892 81.1382L133.892 81.1394ZM131.351 78.1275C131.256 78.0981 131.175 78.0354 131.122 77.9509C131.069 77.8664 131.049 77.7657 131.064 77.6672C131.192 76.9447 131.094 76.2001 130.783 75.5353C130.736 75.4362 130.73 75.3225 130.767 75.2189C130.803 75.1153 130.879 75.0304 130.978 74.9827C131.077 74.9351 131.191 74.9285 131.294 74.9645C131.398 75.0005 131.483 75.0761 131.531 75.1748C131.916 75.9908 132.039 76.9057 131.884 77.7944C131.876 77.8483 131.857 77.9 131.829 77.9466C131.8 77.9932 131.763 78.0337 131.719 78.0659C131.675 78.0981 131.625 78.1213 131.572 78.1342C131.519 78.1471 131.464 78.1495 131.41 78.1411C131.391 78.1379 131.371 78.1334 131.351 78.1275ZM122.647 74.3364C122.583 74.3168 122.525 74.282 122.478 74.235C122.43 74.188 122.395 74.1303 122.374 74.0666C122.354 74.0029 122.349 73.9353 122.36 73.8694C122.372 73.8035 122.399 73.7413 122.439 73.6882C122.943 73.0267 123.741 72.5612 124.749 72.3432C124.857 72.3199 124.969 72.3403 125.062 72.3999C125.154 72.4595 125.219 72.5535 125.243 72.6611C125.266 72.7687 125.246 72.8811 125.186 72.9737C125.126 73.0663 125.032 73.1314 124.925 73.1547C124.113 73.3304 123.482 73.6886 123.1 74.1912C123.048 74.2588 122.977 74.309 122.896 74.335C122.816 74.3609 122.729 74.3614 122.647 74.3364ZM138.319 79.0965C138.241 79.0724 138.172 79.0257 138.12 78.9623C138.068 78.899 138.036 78.8217 138.028 78.7403C138.02 78.6588 138.037 78.5768 138.075 78.5046C138.113 78.4324 138.172 78.3731 138.244 78.3343C138.923 77.9697 139.631 77.5664 140.35 77.1373C140.444 77.0809 140.558 77.0644 140.664 77.0913C140.771 77.1183 140.863 77.1865 140.919 77.281C140.976 77.3756 140.992 77.4886 140.965 77.5954C140.938 77.7021 140.87 77.7938 140.775 77.8502C140.046 78.2858 139.327 78.6942 138.638 79.0652C138.59 79.0913 138.536 79.1075 138.482 79.1129C138.427 79.1183 138.372 79.1127 138.319 79.0965ZM129.403 73.987C129.367 73.9761 129.334 73.9607 129.303 73.941C128.654 73.5417 127.936 73.2696 127.185 73.1392C127.132 73.1296 127.081 73.1094 127.035 73.08C126.989 73.0505 126.949 73.0123 126.918 72.9676C126.887 72.9228 126.865 72.8723 126.853 72.8191C126.842 72.7658 126.841 72.7108 126.85 72.6571C126.86 72.6035 126.88 72.5523 126.91 72.5064C126.939 72.4605 126.977 72.4209 127.022 72.3898C127.067 72.3587 127.117 72.3368 127.171 72.3252C127.224 72.3135 127.279 72.3126 127.333 72.3222C128.188 72.4714 129.007 72.7824 129.746 73.2386C129.831 73.2922 129.894 73.375 129.923 73.4715C129.952 73.5681 129.944 73.6717 129.902 73.7632C129.86 73.8547 129.787 73.9278 129.695 73.9689C129.603 74.01 129.499 74.0163 129.403 73.9865L129.403 73.987ZM142.512 76.6019C142.437 76.5786 142.37 76.5342 142.318 76.474C142.267 76.4137 142.234 76.3401 142.224 76.2619C142.213 76.1836 142.225 76.1039 142.258 76.0321C142.291 75.9603 142.343 75.8993 142.41 75.8565C143.066 75.4329 143.746 74.9803 144.431 74.51C144.476 74.4782 144.527 74.4556 144.58 74.4436C144.634 74.4317 144.69 74.4305 144.744 74.4401C144.798 74.4498 144.85 74.4701 144.896 74.5C144.942 74.5298 144.982 74.5685 145.013 74.6139C145.044 74.6593 145.066 74.7104 145.077 74.7642C145.089 74.8181 145.089 74.8736 145.078 74.9277C145.068 74.9817 145.047 75.0331 145.016 75.0788C144.986 75.1246 144.947 75.1639 144.901 75.1944C144.209 75.6692 143.522 76.1267 142.86 76.554C142.809 76.5868 142.752 76.6082 142.692 76.6165C142.632 76.6248 142.571 76.6199 142.513 76.6021L142.512 76.6019ZM146.539 73.8436C146.465 73.8208 146.399 73.7779 146.349 73.7198C146.298 73.6616 146.264 73.5905 146.252 73.5143C146.239 73.4381 146.248 73.36 146.278 73.2886C146.307 73.2173 146.356 73.1556 146.418 73.1104C147.056 72.6499 147.715 72.1641 148.376 71.6665C148.464 71.6003 148.574 71.5717 148.683 71.587C148.792 71.6024 148.891 71.6604 148.957 71.7483C149.023 71.8363 149.052 71.9469 149.037 72.056C149.021 72.165 148.963 72.2634 148.875 72.3297C148.21 72.8307 147.547 73.3198 146.904 73.7834C146.852 73.821 146.792 73.846 146.729 73.8564C146.666 73.8669 146.601 73.8625 146.54 73.8438L146.539 73.8436ZM150.439 70.9094C150.367 70.887 150.302 70.8452 150.252 70.7885C150.201 70.7318 150.167 70.6623 150.154 70.5878C150.14 70.5132 150.147 70.4362 150.174 70.3653C150.201 70.2944 150.247 70.2323 150.307 70.1856C150.929 69.6998 151.571 69.1901 152.214 68.6727C152.3 68.6036 152.409 68.5714 152.519 68.5832C152.628 68.595 152.729 68.6498 152.798 68.7356C152.867 68.8213 152.899 68.931 152.887 69.0405C152.875 69.15 152.821 69.2503 152.735 69.3193C152.088 69.8393 151.444 70.3514 150.818 70.8404C150.765 70.8814 150.703 70.9091 150.637 70.9211C150.572 70.9332 150.504 70.9291 150.44 70.9094L150.439 70.9094ZM154.241 67.8477C154.17 67.8256 154.105 67.7847 154.055 67.7291C154.005 67.6735 153.971 67.6054 153.956 67.532C153.942 67.4586 153.947 67.3826 153.972 67.3121C153.997 67.2416 154.041 67.1792 154.099 67.1314C154.715 66.6204 155.344 66.0925 155.968 65.5622C156.052 65.4909 156.161 65.4559 156.271 65.4648C156.38 65.4737 156.482 65.5259 156.553 65.6098C156.625 65.6937 156.66 65.8025 156.651 65.9122C156.642 66.0219 156.59 66.1236 156.506 66.1949C155.879 66.7273 155.248 67.2575 154.628 67.7712C154.575 67.815 154.512 67.8449 154.445 67.8582C154.377 67.8716 154.308 67.868 154.242 67.8477L154.241 67.8477ZM157.965 64.6854C157.894 64.6635 157.831 64.6232 157.781 64.5686C157.731 64.5139 157.696 64.4469 157.681 64.3745C157.666 64.3021 157.67 64.2269 157.694 64.1568C157.717 64.0866 157.759 64.0241 157.815 63.9755C158.416 63.4535 159.031 62.9125 159.646 62.3675C159.728 62.2944 159.836 62.2571 159.946 62.2636C160.056 62.2702 160.159 62.3202 160.232 62.4026C160.305 62.4849 160.342 62.593 160.336 62.7029C160.329 62.8128 160.279 62.9156 160.197 62.9886C159.58 63.5355 158.962 64.0784 158.359 64.602C158.306 64.648 158.242 64.6797 158.173 64.6942C158.104 64.7086 158.033 64.7053 157.966 64.6846L157.965 64.6854ZM161.617 61.4461C161.547 61.4245 161.484 61.3847 161.434 61.3308C161.384 61.2769 161.35 61.2108 161.334 61.1392C161.318 61.0676 161.322 60.9932 161.344 60.9233C161.366 60.8535 161.407 60.7909 161.461 60.7417C162.069 60.192 162.669 59.6444 163.262 59.099C163.302 59.0612 163.349 59.0318 163.4 59.0123C163.451 58.9929 163.506 58.9839 163.561 58.9858C163.616 58.9877 163.67 59.0005 163.72 59.0234C163.77 59.0464 163.815 59.079 163.852 59.1195C163.889 59.1599 163.918 59.2074 163.937 59.2591C163.956 59.3107 163.964 59.3656 163.961 59.4205C163.959 59.4754 163.945 59.5293 163.922 59.5789C163.898 59.6286 163.865 59.673 163.824 59.7097C163.23 60.2565 162.628 60.8057 162.018 61.3574C161.964 61.4055 161.899 61.439 161.829 61.4545C161.759 61.4701 161.686 61.4671 161.618 61.446L161.617 61.4461ZM165.209 58.1405C165.14 58.119 165.077 58.0797 165.028 58.0264C164.978 57.9732 164.944 57.9079 164.927 57.837C164.911 57.7661 164.914 57.6922 164.935 57.6227C164.956 57.5531 164.995 57.4904 165.048 57.4407C165.651 56.8768 166.243 56.3193 166.822 55.768C166.862 55.7302 166.908 55.7006 166.959 55.6808C167.01 55.661 167.064 55.6515 167.119 55.6528C167.174 55.654 167.228 55.6661 167.278 55.6882C167.328 55.7104 167.373 55.7422 167.41 55.7818C167.448 55.8214 167.477 55.8681 167.497 55.9191C167.517 55.9701 167.526 56.0245 167.524 56.0791C167.523 56.1338 167.511 56.1876 167.488 56.2375C167.466 56.2873 167.434 56.3323 167.394 56.3698C166.813 56.9217 166.22 57.4805 165.616 58.0461C165.562 58.0959 165.497 58.1307 165.426 58.1471C165.354 58.1634 165.28 58.1607 165.21 58.1392L165.209 58.1405ZM168.749 54.7771C168.68 54.7558 168.618 54.7169 168.569 54.6642C168.519 54.6115 168.485 54.5469 168.468 54.4766C168.451 54.4064 168.453 54.3331 168.473 54.2638C168.494 54.1945 168.532 54.1318 168.584 54.0817C169.184 53.5021 169.767 52.9355 170.333 52.382C170.412 52.305 170.518 52.2625 170.628 52.2637C170.738 52.2649 170.843 52.3098 170.92 52.3885C170.997 52.4672 171.04 52.5732 171.038 52.6833C171.037 52.7934 170.992 52.8985 170.914 52.9755C170.347 53.5297 169.762 54.0976 169.16 54.6792C169.107 54.7305 169.04 54.7665 168.968 54.7836C168.896 54.8007 168.821 54.7982 168.75 54.7763L168.749 54.7771ZM172.241 51.3613C172.172 51.3401 172.11 51.3015 172.061 51.2493C172.012 51.1972 171.977 51.1332 171.96 51.0636C171.943 50.994 171.944 50.9212 171.964 50.8522C171.983 50.7832 172.02 50.7205 172.071 50.67C172.675 50.0708 173.25 49.4959 173.797 48.9453C173.835 48.9055 173.881 48.8736 173.932 48.8516C173.982 48.8296 174.037 48.8179 174.092 48.8173C174.147 48.8166 174.202 48.8269 174.253 48.8476C174.304 48.8683 174.351 48.899 174.39 48.9379C174.429 48.9768 174.46 49.0232 174.481 49.0742C174.502 49.1252 174.513 49.1799 174.512 49.235C174.512 49.2902 174.501 49.3448 174.479 49.3955C174.457 49.4462 174.426 49.4921 174.386 49.5305C173.839 50.081 173.262 50.6572 172.655 51.2591C172.602 51.3118 172.535 51.3491 172.463 51.367C172.39 51.3848 172.313 51.3826 172.242 51.3605L172.241 51.3613ZM175.685 47.8951C175.617 47.8741 175.556 47.836 175.507 47.7844C175.458 47.7327 175.423 47.6694 175.405 47.6003C175.388 47.5313 175.388 47.459 175.407 47.3902C175.426 47.3215 175.461 47.2587 175.511 47.2079C176.141 46.5652 176.711 45.9788 177.214 45.4576C177.251 45.418 177.297 45.3863 177.347 45.3643C177.397 45.3422 177.451 45.3303 177.505 45.3291C177.56 45.328 177.615 45.3377 177.665 45.3577C177.716 45.3776 177.763 45.4074 177.802 45.4454C177.842 45.4834 177.873 45.5288 177.895 45.579C177.917 45.6292 177.928 45.6832 177.929 45.7379C177.93 45.7926 177.92 45.8469 177.9 45.8977C177.879 45.9486 177.849 45.9949 177.811 46.034C177.307 46.5564 176.736 47.145 176.104 47.789C176.051 47.8432 175.984 47.8817 175.91 47.9003C175.836 47.9188 175.759 47.9168 175.686 47.8943L175.685 47.8951Z" fill="white"/>
<path d="M118.529 90.4596C118.452 90.4358 118.383 90.3901 118.331 90.3279C118.28 90.2657 118.248 90.1899 118.238 90.1097C118.229 90.0294 118.244 89.9483 118.28 89.8761C118.316 89.804 118.373 89.744 118.443 89.7036C118.808 89.4923 119.164 89.2829 119.511 89.0751C119.557 89.0459 119.609 89.0264 119.664 89.0176C119.718 89.0088 119.774 89.0109 119.827 89.0238C119.881 89.0368 119.931 89.0602 119.976 89.0928C120.02 89.1255 120.058 89.1666 120.086 89.2139C120.114 89.2612 120.133 89.3136 120.141 89.3682C120.149 89.4227 120.146 89.4783 120.132 89.5316C120.118 89.585 120.094 89.635 120.06 89.6789C120.027 89.7227 119.985 89.7595 119.937 89.787C119.587 89.997 119.228 90.2086 118.859 90.422C118.809 90.4507 118.755 90.4689 118.698 90.4754C118.641 90.4818 118.583 90.4765 118.529 90.4596Z" fill="white"/>
<path d="M109.774 59.814C109.706 59.7932 109.645 59.7555 109.596 59.7046C109.548 59.6536 109.512 59.591 109.495 59.5228C109.477 59.4545 109.476 59.3828 109.494 59.3144C109.511 59.246 109.546 59.1832 109.595 59.132C110.119 58.5779 110.417 58.2311 110.42 58.2277C110.491 58.1446 110.593 58.0934 110.703 58.0852C110.812 58.077 110.92 58.1125 111.004 58.1839C111.087 58.2553 111.139 58.3568 111.147 58.4662C111.156 58.5756 111.121 58.684 111.05 58.7677C111.038 58.7823 110.738 59.1319 110.198 59.7024C110.144 59.7587 110.076 59.799 110.002 59.8187C109.927 59.8384 109.848 59.8368 109.774 59.814Z" fill="white"/>
<path d="M84.7131 72.95C84.636 72.9263 84.5676 72.8807 84.516 72.8187C84.4645 72.7567 84.4321 72.6811 84.4229 72.601C84.4136 72.5209 84.4279 72.4399 84.4639 72.3678C84.5 72.2957 84.5562 72.2356 84.6258 72.195C85.381 71.7533 86.1056 71.3117 86.7798 70.8826C86.8257 70.8526 86.8772 70.8319 86.9312 70.8219C86.9853 70.8119 87.0407 70.8127 87.0944 70.8243C87.1481 70.8359 87.199 70.858 87.2441 70.8894C87.2892 70.9208 87.3276 70.9608 87.3571 71.0072C87.3866 71.0535 87.4066 71.1053 87.4159 71.1594C87.4253 71.2135 87.4238 71.269 87.4115 71.3226C87.3993 71.3761 87.3765 71.4267 87.3446 71.4714C87.3126 71.5161 87.2721 71.554 87.2254 71.5829C86.5426 72.0176 85.809 72.4647 85.0447 72.9115C84.9952 72.9407 84.9401 72.9591 84.883 72.9658C84.8259 72.9724 84.768 72.967 84.7131 72.95ZM88.9877 70.2156C88.9137 70.1928 88.8476 70.1497 88.7967 70.0912C88.7459 70.0328 88.7125 69.9613 88.7002 69.8848C88.6879 69.8083 88.6973 69.7299 88.7272 69.6585C88.7571 69.5871 88.8065 69.5254 88.8696 69.4806C89.597 68.9637 90.2673 68.4514 90.8613 67.959C90.9032 67.9242 90.9516 67.898 91.0037 67.8819C91.0558 67.8658 91.1105 67.8601 91.1648 67.8652C91.2191 67.8702 91.2718 67.886 91.32 67.9114C91.3683 67.9369 91.411 67.9715 91.4458 68.0135C91.4806 68.0555 91.5068 68.1039 91.5229 68.156C91.539 68.208 91.5446 68.2628 91.5396 68.3171C91.5345 68.3713 91.5188 68.4241 91.4934 68.4723C91.4679 68.5205 91.4332 68.5632 91.3913 68.598C90.7814 69.1038 90.0948 69.6286 89.3505 70.1573C89.2986 70.1942 89.2388 70.2187 89.1759 70.2288C89.113 70.2389 89.0486 70.2344 88.9877 70.2156ZM92.3965 68.894C92.2957 68.8626 92.2107 68.7941 92.1586 68.7022C92.1066 68.6104 92.0915 68.5022 92.1164 68.3996C92.1414 68.2971 92.2044 68.2078 92.2928 68.1501C92.3811 68.0924 92.4882 68.0705 92.5921 68.0889C93.3891 68.226 94.2012 68.2528 95.0055 68.1686C95.115 68.1578 95.2244 68.1909 95.3096 68.2607C95.3947 68.3305 95.4486 68.4313 95.4595 68.5409C95.4703 68.6505 95.4372 68.7599 95.3674 68.845C95.2975 68.9302 95.1967 68.9841 95.0872 68.9949C94.2071 69.0863 93.3186 69.0565 92.4466 68.9063C92.4297 68.9031 92.4129 68.899 92.3965 68.894ZM90.0094 68.0705C89.9842 68.0627 89.9597 68.0526 89.9363 68.0402C89.1565 67.6204 88.4383 67.095 87.8019 66.4791C87.7234 66.4027 87.6782 66.2984 87.6763 66.1889C87.6743 66.0794 87.7158 65.9735 87.7916 65.8944C87.8673 65.8153 87.9713 65.7694 88.0808 65.7666C88.1903 65.7638 88.2965 65.8045 88.3762 65.8797C88.9574 66.4427 89.6135 66.9231 90.3258 67.3071C90.417 67.3556 90.4868 67.4362 90.5217 67.5334C90.5565 67.6305 90.554 67.7372 90.5145 67.8326C90.4749 67.9279 90.4013 68.0051 90.3079 68.0491C90.2146 68.0931 90.1081 68.1008 90.0094 68.0705ZM97.4053 68.4601C97.3205 68.4341 97.2463 68.3816 97.1935 68.3104C97.1407 68.2392 97.1121 68.1529 97.1119 68.0642C97.1117 67.9756 97.1398 67.8892 97.1923 67.8177C97.2447 67.7462 97.3187 67.6934 97.4033 67.667C98.1914 67.4172 98.9604 67.1109 99.7044 66.7505C99.7535 66.7269 99.8068 66.7132 99.8613 66.7102C99.9157 66.7072 99.9702 66.715 100.022 66.733C100.073 66.7511 100.12 66.7791 100.161 66.8155C100.202 66.8519 100.235 66.8959 100.258 66.945C100.282 66.9942 100.296 67.0475 100.299 67.1019C100.302 67.1563 100.294 67.2108 100.276 67.2623C100.258 67.3137 100.23 67.3611 100.193 67.4017C100.157 67.4423 100.113 67.4753 100.064 67.4989C99.2835 67.8766 98.4771 68.1974 97.6508 68.4588C97.5707 68.4842 97.4848 68.4845 97.4045 68.4598L97.4053 68.4601ZM92.8628 66.9496C92.7955 66.9288 92.7345 66.8913 92.6857 66.8404C92.637 66.7896 92.6019 66.7272 92.5839 66.6591C92.5659 66.591 92.5655 66.5195 92.5828 66.4512C92.6 66.3829 92.6344 66.3201 92.6826 66.2688C93.2478 65.6883 93.7354 65.0368 94.1329 64.3308C94.1847 64.2337 94.273 64.1611 94.3783 64.129C94.4836 64.097 94.5973 64.1081 94.6945 64.1599C94.7916 64.2117 94.8642 64.2999 94.8963 64.4052C94.9283 64.5106 94.9173 64.6243 94.8655 64.7214C94.4336 65.4921 93.9032 66.2032 93.2877 66.837C93.2345 66.8938 93.1663 66.9344 93.091 66.9543C93.0157 66.9741 92.9363 66.9724 92.862 66.9493L92.8628 66.9496ZM86.3938 64.5974C86.2888 64.5651 86.2009 64.4925 86.1493 64.3955C85.6789 63.5109 85.5567 62.6845 85.7867 61.9371C85.8233 61.8182 85.8687 61.7023 85.9225 61.5901C85.9701 61.4909 86.0552 61.4146 86.159 61.378C86.2629 61.3415 86.377 61.3478 86.4763 61.3954C86.5755 61.443 86.6518 61.5281 86.6883 61.6319C86.7248 61.7358 86.7186 61.8499 86.671 61.9492C86.635 62.0243 86.6046 62.1021 86.58 62.1817C86.4175 62.7098 86.5193 63.3236 86.8823 64.0063C86.9208 64.0789 86.937 64.1612 86.9287 64.243C86.9205 64.3247 86.8881 64.4022 86.8358 64.4655C86.7835 64.5289 86.7135 64.5753 86.6348 64.5988C86.5561 64.6224 86.4722 64.6221 86.3936 64.5979L86.3938 64.5974ZM101.986 66.2974C101.91 66.2739 101.842 66.229 101.791 66.168C101.74 66.107 101.707 66.0325 101.697 65.9534C101.687 65.8743 101.7 65.794 101.734 65.7221C101.768 65.6501 101.823 65.5896 101.89 65.5477C102.569 65.1282 103.267 64.6553 103.965 64.1419C104.054 64.0776 104.164 64.0509 104.272 64.0677C104.381 64.0846 104.478 64.1436 104.543 64.2318C104.608 64.3201 104.635 64.4305 104.619 64.5389C104.603 64.6473 104.545 64.7449 104.457 64.8105C103.741 65.3372 103.024 65.8228 102.327 66.2539C102.276 66.2852 102.22 66.3052 102.161 66.3127C102.102 66.3201 102.042 66.3148 101.985 66.2971L101.986 66.2974ZM88.1156 60.631C88.0323 60.6054 87.9592 60.5542 87.9067 60.4847C87.8541 60.4153 87.8247 60.331 87.8227 60.2439C87.8207 60.1568 87.8461 60.0713 87.8954 59.9995C87.9447 59.9276 88.0153 59.8731 88.0973 59.8437C88.9468 59.5489 89.8422 59.4086 90.7412 59.4294C90.8495 59.4336 90.9518 59.4801 91.0263 59.5588C91.1008 59.6375 91.1416 59.7423 91.1399 59.8506C91.1382 59.959 91.0941 60.0624 91.0172 60.1388C90.9403 60.2151 90.8365 60.2583 90.7282 60.2592C89.9297 60.2418 89.1345 60.3654 88.3791 60.6243C88.294 60.6551 88.2013 60.6571 88.115 60.6301L88.1156 60.631ZM94.8059 62.4864C94.7396 62.466 94.6795 62.4293 94.631 62.3797C94.5826 62.3301 94.5473 62.2692 94.5284 62.2024C94.3063 61.4166 93.5976 60.9618 93.0424 60.7187C92.9919 60.6972 92.9461 60.6659 92.9078 60.6266C92.8695 60.5874 92.8393 60.5409 92.8191 60.4899C92.7988 60.4389 92.7889 60.3843 92.7899 60.3295C92.7908 60.2746 92.8027 60.2204 92.8247 60.1702C92.8467 60.1199 92.8785 60.0745 92.9182 60.0366C92.9579 59.9987 93.0047 59.969 93.0559 59.9493C93.1071 59.9296 93.1617 59.9203 93.2166 59.9218C93.2715 59.9234 93.3255 59.9358 93.3755 59.9584C94.4067 60.41 95.0813 61.1086 95.3272 61.9766C95.3475 62.0484 95.3481 62.1244 95.3289 62.1965C95.3096 62.2687 95.2713 62.3343 95.2179 62.3865C95.1645 62.4387 95.098 62.4755 95.0254 62.493C94.9529 62.5106 94.8769 62.5082 94.8056 62.4863L94.8059 62.4864ZM106.083 63.2985C106.012 63.2765 105.948 63.2358 105.898 63.1805C105.848 63.1253 105.813 63.0575 105.798 62.9845C105.784 62.9114 105.789 62.8357 105.813 62.7653C105.838 62.6949 105.881 62.6324 105.938 62.5844C106.567 62.0547 107.198 61.4906 107.816 60.9079C107.855 60.87 107.902 60.8403 107.953 60.8206C108.004 60.8008 108.058 60.7913 108.113 60.7927C108.168 60.7941 108.222 60.8063 108.272 60.8286C108.322 60.8509 108.367 60.8829 108.404 60.9227C108.442 60.9625 108.471 61.0093 108.491 61.0605C108.51 61.1118 108.519 61.1663 108.518 61.221C108.516 61.2758 108.503 61.3296 108.481 61.3794C108.458 61.4293 108.426 61.4742 108.386 61.5115C107.757 62.105 107.113 62.6795 106.473 63.2192C106.419 63.2643 106.356 63.2952 106.287 63.3091C106.219 63.323 106.148 63.3195 106.082 63.2988L106.083 63.2985Z" fill="white"/>
<path d="M81.3902 74.797C81.3118 74.7729 81.2423 74.7261 81.1905 74.6626C81.1387 74.599 81.1068 74.5215 81.099 74.4399C81.0912 74.3583 81.1077 74.2761 81.1465 74.2039C81.1853 74.1316 81.2446 74.0725 81.317 74.0339C81.6905 73.8362 82.0546 73.6403 82.4091 73.4464C82.5057 73.3936 82.6193 73.3814 82.725 73.4124C82.8306 73.4434 82.9196 73.5151 82.9723 73.6118C83.0251 73.7084 83.0373 73.822 83.0063 73.9277C82.9753 74.0333 82.9036 74.1223 82.8069 74.175C82.4492 74.3703 82.0822 74.5678 81.7059 74.7673C81.6578 74.7928 81.6052 74.8085 81.551 74.8136C81.4968 74.8187 81.4422 74.8131 81.3902 74.797Z" fill="white"/>
</svg>
