<svg width="18" height="19" viewBox="0 0 18 19" fill="none" xmlns="http://www.w3.org/2000/svg">
<path d="M8.88187 6.3518C7.26166 6.3518 5.93944 7.67402 5.93944 9.29423C5.93944 10.9144 7.26166 12.2367 8.88187 12.2367C10.5021 12.2367 11.8243 10.9144 11.8243 9.29423C11.8243 7.67402 10.5021 6.3518 8.88187 6.3518ZM17.7069 9.29423C17.7069 8.07576 17.718 6.86833 17.6496 5.65207C17.5811 4.23935 17.2589 2.98556 16.2258 1.95251C15.1905 0.917249 13.939 0.59718 12.5262 0.528751C11.3078 0.460323 10.1003 0.47136 8.88408 0.47136C7.6656 0.47136 6.45817 0.460323 5.24191 0.528751C3.82919 0.59718 2.5754 0.919456 1.54235 1.95251C0.507093 2.98777 0.187024 4.23935 0.118595 5.65207C0.0501665 6.87054 0.0612034 8.07797 0.0612034 9.29423C0.0612034 10.5105 0.0501665 11.7201 0.118595 12.9364C0.187024 14.3491 0.5093 15.6029 1.54235 16.636C2.57761 17.6712 3.82919 17.9913 5.24191 18.0597C6.46038 18.1281 7.66781 18.1171 8.88408 18.1171C10.1025 18.1171 11.31 18.1281 12.5262 18.0597C13.939 17.9913 15.1927 17.669 16.2258 16.636C17.2611 15.6007 17.5811 14.3491 17.6496 12.9364C17.7202 11.7201 17.7069 10.5127 17.7069 9.29423ZM8.88187 13.8216C6.3765 13.8216 4.35455 11.7996 4.35455 9.29423C4.35455 6.78886 6.3765 4.76691 8.88187 4.76691C11.3872 4.76691 13.4092 6.78886 13.4092 9.29423C13.4092 11.7996 11.3872 13.8216 8.88187 13.8216ZM13.5946 5.63882C13.0097 5.63882 12.5373 5.16644 12.5373 4.58149C12.5373 3.99654 13.0097 3.52416 13.5946 3.52416C14.1796 3.52416 14.6519 3.99654 14.6519 4.58149C14.6521 4.72039 14.6249 4.85796 14.5718 4.98632C14.5187 5.11468 14.4409 5.23131 14.3426 5.32952C14.2444 5.42774 14.1278 5.50562 13.9994 5.55869C13.8711 5.61177 13.7335 5.639 13.5946 5.63882Z" fill="white"/>
</svg>
