<svg width="22" height="19" viewBox="0 0 22 19" fill="none" xmlns="http://www.w3.org/2000/svg">
<path d="M21.7221 2.56695C20.9232 2.91154 20.0539 3.15954 19.1585 3.25613C20.0882 2.70384 20.7843 1.83131 21.1164 0.802249C20.2441 1.32119 19.2884 1.68508 18.2918 1.87778C17.8753 1.43249 17.3716 1.07776 16.812 0.835683C16.2523 0.593604 15.6489 0.469367 15.0391 0.470714C12.5722 0.470714 10.5882 2.47036 10.5882 4.92424C10.5882 5.26883 10.63 5.61342 10.6979 5.94495C7.004 5.75178 3.70953 3.98707 1.51932 1.28519C1.12024 1.96684 0.911104 2.74297 0.913678 3.53284C0.913678 5.07826 1.69944 6.44095 2.89767 7.24238C2.19153 7.21457 1.50194 7.02048 0.884963 6.6759V6.73072C0.884963 8.89483 2.41472 10.6883 4.45353 11.1007C4.07072 11.2001 3.67692 11.251 3.28141 11.2521C2.99164 11.2521 2.71754 11.2234 2.44083 11.1842C3.0047 12.949 4.64671 14.2307 6.60198 14.2725C5.07222 15.4707 3.15611 16.1755 1.07553 16.1755C0.702227 16.1755 0.35764 16.1625 0 16.1207C1.97355 17.3868 4.31517 18.1178 6.83693 18.1178C15.0235 18.1178 19.5031 11.3357 19.5031 5.44896C19.5031 5.25578 19.5031 5.0626 19.4901 4.86942C20.3568 4.23507 21.1164 3.44931 21.7221 2.56695Z" fill="white"/>
</svg>
