<svg width="19" height="19" viewBox="0 0 19 19" fill="none" xmlns="http://www.w3.org/2000/svg">
<path fill-rule="evenodd" clip-rule="evenodd" d="M2.44531 0.470703C11.2263 0.470703 18.3729 7.59637 18.4101 16.3685V16.3691H18.4115V17.2972H18.401C18.3778 17.5031 18.2857 17.695 18.1397 17.8419C17.9937 17.9889 17.8023 18.0821 17.5967 18.1067V18.1177H15.9464V18.1158C15.7232 18.1111 15.5092 18.0255 15.3444 17.8749C15.1796 17.7243 15.0751 17.5189 15.0504 17.297H15.04V16.3688H15.0493C15.0121 9.44919 9.37323 3.83124 2.44504 3.83124C2.43846 3.83124 2.43189 3.83076 2.42531 3.83028C2.41983 3.82988 2.41435 3.82949 2.40887 3.82936V3.84223H1.48072V3.83178C1.27487 3.80858 1.08291 3.71651 0.935971 3.5705C0.789036 3.42448 0.695753 3.2331 0.671261 3.02741H0.660275V1.37715H0.66215C0.666821 1.15392 0.752437 0.939985 0.903064 0.775163C1.05369 0.61034 1.25907 0.505855 1.48098 0.481153V0.470703H2.40914V0.472579C2.41459 0.472458 2.41999 0.472062 2.4254 0.471666C2.43196 0.471186 2.43856 0.470703 2.44531 0.470703ZM2.42529 6.82983L2.42528 6.82983C2.41987 6.83023 2.41447 6.83063 2.40902 6.83075V6.82887H1.48086V6.83932C1.25895 6.86402 1.05357 6.96851 0.902946 7.13333C0.752318 7.29815 0.666703 7.51209 0.662032 7.73532H0.660156V9.38558H0.671142C0.69568 9.59126 0.788978 9.78261 0.935905 9.92861C1.08283 10.0746 1.27477 10.1667 1.4806 10.1899V10.2004H2.40875V10.1875C2.41423 10.1877 2.41971 10.1881 2.42519 10.1885C2.43177 10.1889 2.43834 10.1894 2.44492 10.1894C5.86708 10.1894 8.65396 12.9548 8.69093 16.3684H8.68209V17.2966H8.69254C8.71724 17.5185 8.82173 17.7239 8.98655 17.8745C9.15137 18.0251 9.36531 18.1108 9.58854 18.1154V18.1173H11.2385V18.1063C11.4442 18.0818 11.6356 17.9885 11.7816 17.8415C11.9276 17.6946 12.0197 17.5027 12.0429 17.2969H12.0533V16.3687H12.0517C12.015 11.1018 7.72018 6.82887 2.44519 6.82887C2.43844 6.82887 2.43185 6.82935 2.42529 6.82983ZM3.17486 13.2998C2.86583 13.2998 2.55983 13.3607 2.27434 13.479C1.98884 13.5973 1.72945 13.7707 1.51099 13.9892C1.29252 14.2078 1.11925 14.4673 1.00109 14.7528C0.882929 15.0384 0.822183 15.3444 0.822323 15.6534C0.822323 15.9624 0.883187 16.2684 1.00144 16.5539C1.11969 16.8394 1.29302 17.0988 1.51152 17.3173C1.73002 17.5358 1.98943 17.7091 2.27491 17.8274C2.5604 17.9456 2.86639 18.0065 3.1754 18.0065C3.48441 18.0065 3.79039 17.9456 4.07588 17.8274C4.36137 17.7091 4.62077 17.5358 4.83927 17.3173C5.05777 17.0988 5.2311 16.8394 5.34935 16.5539C5.4676 16.2684 5.52847 15.9624 5.52847 15.6534C5.52861 15.3443 5.46783 15.0382 5.3496 14.7526C5.23137 14.4669 5.05801 14.2074 4.83943 13.9888C4.62085 13.7703 4.36133 13.5969 4.07571 13.4787C3.7901 13.3604 3.48398 13.2997 3.17486 13.2998Z" fill="white"/>
</svg>
